<svg viewBox="0 0 24 24" fill="none" xmlns="http://www.w3.org/2000/svg">
<path fill-rule="evenodd" clip-rule="evenodd" d="M2 6C2 5.44772 2.44772 5 3 5H21C21.5523 5 22 5.44772 22 6V16C22 17.6569 20.6569 19 19 19H5C3.34315 19 2 17.6569 2 16V6ZM4 7V16C4 16.5523 4.44772 17 5 17H19C19.5523 17 20 16.5523 20 16V7H4Z" fill="currentColor"/>
<path fill-rule="evenodd" clip-rule="evenodd" d="M12 10C10.8954 10 10 10.8954 10 12C10 13.1046 10.8954 14 12 14C13.1046 14 14 13.1046 14 12C14 10.8954 13.1046 10 12 10ZM8 12C8 9.79086 9.79086 8 12 8C14.2091 8 16 9.79086 16 12C16 14.2091 14.2091 16 12 16C9.79086 16 8 14.2091 8 12Z" fill="currentColor"/>
<path fill-rule="evenodd" clip-rule="evenodd" d="M18 3C18 3.55228 17.5523 4 17 4H16C15.4477 4 15 3.55228 15 3C15 2.44772 15.4477 2 16 2L17 2C17.5523 2 18 2.44772 18 3Z" fill="currentColor"/>
</svg>
