<svg viewBox="0 0 24 24" fill="none" xmlns="http://www.w3.org/2000/svg">
<path fill-rule="evenodd" clip-rule="evenodd" d="M11.2929 2.29289C11.6834 1.90237 12.3166 1.90237 12.7071 2.29289L22.7071 12.2929C23.0976 12.6834 23.0976 13.3166 22.7071 13.7071C22.3166 14.0976 21.6834 14.0976 21.2929 13.7071L21 13.4142V19C21 20.6569 19.6569 22 18 22H6C4.34315 22 3 20.6569 3 19V13.4142L2.70711 13.7071C2.31658 14.0976 1.68342 14.0976 1.29289 13.7071C0.902369 13.3166 0.902369 12.6834 1.29289 12.2929L3.29254 10.2933C3.29277 10.293 3.29301 10.2928 3.29325 10.2925L11.2929 2.29289ZM5 11.4142V19C5 19.5523 5.44772 20 6 20H18C18.5523 20 19 19.5523 19 19V11.4142L12 4.41421L5 11.4142Z" fill="currentColor"/>
</svg>
