<svg viewBox="0 0 24 24" fill="none" xmlns="http://www.w3.org/2000/svg">
<path fill-rule="evenodd" clip-rule="evenodd" d="M14.1111 3C9.63147 3 6 6.63147 6 11.1111C6 15.5908 9.63147 19.2222 14.1111 19.2222C15.9901 19.2222 17.721 18.5824 19.0959 17.5101L22.2929 20.7071C22.6834 21.0976 23.3166 21.0976 23.7071 20.7071C24.0976 20.3166 24.0976 19.6834 23.7071 19.2929L20.5101 16.0959C21.5824 14.721 22.2222 12.9901 22.2222 11.1111C22.2222 6.63147 18.5908 3 14.1111 3ZM8 11.1111C8 7.73604 10.736 5 14.1111 5C17.4862 5 20.2222 7.73604 20.2222 11.1111C20.2222 12.7989 19.5393 14.3253 18.4323 15.4323C17.3253 16.5393 15.7989 17.2222 14.1111 17.2222C10.736 17.2222 8 14.4862 8 11.1111Z" fill="currentColor"/>
<path d="M1 5C0.447715 5 0 5.44772 0 6C0 6.55228 0.447715 7 1 7H5C5.55228 7 6 6.55228 6 6C6 5.44772 5.55228 5 5 5H1Z" fill="currentColor"/>
<path d="M1 10C0.447715 10 0 10.4477 0 11C0 11.5523 0.447715 12 1 12H3C3.55228 12 4 11.5523 4 11C4 10.4477 3.55228 10 3 10H1Z" fill="currentColor"/>
<path d="M1 15C0.447715 15 0 15.4477 0 16C0 16.5523 0.447715 17 1 17H5C5.55228 17 6 16.5523 6 16C6 15.4477 5.55228 15 5 15H1Z" fill="currentColor"/>
</svg>
